<svg version="1.2" xmlns="http://www.w3.org/2000/svg" viewBox="0 0 1515 360" width="1515" height="360">
	<title>AMGN_BIG-svg</title>
	<style>
		.s0 { fill: #ffffff } 
	</style>
	<path id="Layer" fill-rule="evenodd" class="s0" d="m886.4 121.1c-17.4-24.3-41.1-38.9-73.8-38.9-53.6 0-97.5 43.8-97.5 98.1 0 54.3 43.9 98.2 97.5 98.2 39 0 72.4-23 87.8-56.4h-100.3v-80.8h183.8v-125.3h163.6v80.8h-85.6v44.5h85.6v80.8h-85.6v41.7h85.6v78.7c2.8 0-163.6 0-163.6 0v-118.3c-19.5 89.1-91.2 135-171.3 135-79.4 0-146.2-47.3-165-130.2v114.9h-80.1v-190.8c0 0-46.6 41.1-46.6 190.8h-82.9c0-149.7-46.7-190.8-46.7-190.8v190.8h-80.7v-331.4c92.6 0 153.9 104.4 168.5 165.7 14.6-61.3 75.9-165.7 168.5-165.7v110c16-73.1 89.1-122.5 165.7-122.5 78 0 146.9 59.2 161.6 121.1zm438.6 222.8c-11.8-89.8-71-153.9-71-153.9v153.9h-85.6v-326.5c18.8 0 87 36.9 156.6 137.1v-137.1h83.6v325.8h-83.6zm-1219.2-82.2c-2.1 9.1-16.7 59.2-22.3 82.2h-83.6c11.2-41.1 32.8-111.4 55.7-158.7 22.3-46.7 50.2-98.2 96.8-133 21.6-16 62.7-47.3 139.3-40.4v332.1h-80.8v-82.2zm105.2-75.8v-77.3c-25.8 18.1-53.6 51.5-70.4 77.3zm1233.2-148.3c0-19.5 16.1-34.8 35.6-34.8 19.5 0 34.8 16 34.8 34.8 0 19.5-16.1 35.5-34.8 35.5-19.5-0.7-35.6-16-35.6-35.5zm64.1 0c0-16-12.5-28.6-28.5-28.6-16.1 0-28.6 12.6-28.6 28.6 0 16 12.5 28.5 28.6 28.5 16 0 28.5-13.2 28.5-28.5zm-11.1 18.8h-8.4l-8.3-16h-7.7v16h-7.7v-37.6h18.1c3.5 0 7.7 0 10.5 2.1 3.5 2.1 4.2 5.5 4.2 9.7 0 7-3.5 9.8-10.5 10.5zm-13.2-21.6c4.2 0 6.9-0.7 6.9-5.6 0-4.9-5.5-4.9-9-4.9h-9.1v10.5z"/>
</svg>