<svg version="1.2" xmlns="http://www.w3.org/2000/svg" viewBox="0 0 1545 496" width="1545" height="496">
	<title>12487a1e0770d29351bd4ce4f87ec8fe-svg</title>
	<style>
		.s0 { fill: #ffffff } 
	</style>
	<path id="Layer" fill-rule="evenodd" class="s0" d="m1545 357.9c0 43.7-45.3 97.1-97.6 97.1-33.3 0-51.5-23.8-58.6-56.6-21.6 36.3-49.7 57-84.4 57-31.9 0-68.9-21.7-68.9-99.3 0-27 5.7-53.9 15.4-78.5-22.9 16.1-46.6 16.6-62.5 14.6-40.4 83.6-107.1 162.6-144.6 162.6-30.6 0-50.1-57.5-59.2-128.7-28.9 76.2-72.2 128.4-114.8 128.4-38.5 0-57.1-28.9-57.1-72.7 0-40.5 21.8-104 21.8-135 0-7-1.7-12.9-7.8-12.9-20.9 0-89 93-116.6 206.9-2.6 10.9-17.4 13.7-29.8 13.7-26.1 0-33-28.4-32.6-58.6-26.1 38.5-53.4 59.2-86.1 59.2-28.5 0-50.4-18.7-58.7-56.7-21.5 36.3-49.6 57-84.4 57-39 0-64.7-29.5-68.7-85.9-35.4 68.1-101 126.5-176.1 126.5-110 0-173.7-77.8-173.7-206.7 0-162 126.5-288.5 252.3-288.5 76.1 0 119.1 38.8 119.1 91.7 0 53-38.9 91.8-72 91.8-8.2 0-12.4-4.9-12.4-9.9 0-16.4 24-36.4 24-79.4 0-35.5-17.4-58.7-53.8-58.7-76 0-178.6 114.1-178.6 253.8 0 96.7 38.8 157.9 112.4 157.9 81.2 0 141.4-80.8 171.3-164.5 22.3-62.7 73.2-110.8 118.7-110.8 27.7 0 47.5 12.8 54.2 42.2 18.9-33.3 38.5-40.2 56.6-40.2 16.5 0 23.7 6.1 23.7 17.8 0 4.2-0.9 9-2.6 14.5-13.3 42.9-39.7 136.4-39.7 180.7 0 16.1 4.5 26.1 13.7 26.1 50.6 0 103.9-157.1 100-218.4q-0.1-2.2 0.4-4.3 0.5-2.1 1.6-4 1.1-1.9 2.7-3.3 1.7-1.5 3.6-2.4 3-1.6 6.1-2.8 3.1-1.2 6.3-2.1 3.3-0.8 6.6-1.3 3.3-0.4 6.6-0.5c41.2 0 35.5 55.8 21.6 113.4 42.2-75.2 86.9-115.4 120.6-115.4 28.7 0 43.9 22 43.9 56.6 0 47.2-24.8 102.5-24.8 146.7 0 14.1 3 24.8 13.7 24.8 23.2 0 58.7-46.6 75.9-108.1q1.6-5.5 2.8-11.1 1.2-5.6 2.1-11.2 0.9-5.6 1.4-11.3 0.6-5.7 0.8-11.4c2-40.1 14.7-75 56-75 17.7 0 22.1 4.7 22.1 11.5 0 11.8-3.3 13.8-4 52.8-1.1 68.1 4.7 163.3 24.1 163.3 15.1 0 54.8-55.6 82-117-32.5-16.2-47.2-49.7-47.2-82.2 0-42 24.2-82 66.1-82 27.6 0 44.7 20.8 44.7 55.3 0 22-6.1 51.7-22.3 91.4 22.6 5.4 52.5-5.6 78-39 25.5-33.5 56.5-54.1 88.6-54.1 27.7 0 47.5 12.8 54.1 42.2 19-33.3 38.6-40.4 56.7-40.4 16.9 0 23.7 6.1 23.7 18.5 0 4-1.1 8.6-2.6 13.8-13.4 42.7-39.9 136.5-39.9 180.8 0 17.7 4.1 28.9 14.3 28.9 17.6 0 39-26.8 54.8-72 1.2-3.5 3.6-5.2 6.3-5.2 5.8 0 10.7 7 10.7 18.6zm-1022.6-99.6c0-25-6.6-45.5-24-45.5-39.8 0-77.4 91.8-77.4 146.8 0 31.6 8.3 52.8 29.4 52.8 36.2 0 72-98.3 72-154.1zm664-81.6c0-13.5-3-23.1-12.8-23.1-9.8 0-18 18.9-18 41.3 0 18.1 4.5 38.5 17.1 53.5 5.7-16.5 13.7-49.3 13.7-71.7zm221.8 81.6c0-25.2-6.2-45.5-23.6-45.5-40.1 0-77.7 93.7-77.7 146.8 0 28.4 8.3 52.8 29.4 52.8 36.7 0 71.9-98.3 71.9-154.1z"/>
</svg>