<svg version="1.2" xmlns="http://www.w3.org/2000/svg" viewBox="0 0 1584 199" width="1584" height="199">
	<title>Carlyle-Annual-Report-2022-1-pdf-svg</title>
	<defs>
		<clipPath clipPathUnits="userSpaceOnUse" id="cp1">
			<path d="m-365.92-377.92h6749v8733.41h-6749z"/>
		</clipPath>
	</defs>
	<style>
		.s0 { fill: #ffffff } 
	</style>
	<g id="Clip-Path: Page 1" clip-path="url(#cp1)">
		<g id="Page 1">
			<path id="Path 5" fill-rule="evenodd" class="s0" d="m1583.2 149.2l-4.9 48.5h-138.4v-7.7q7.2-3.3 12.7-8.3 1.6-9.4 1.6-18.7c1.1-16 1.1-28.2 1.1-35.3v-90.5q0.6-9.9-1.6-19.2-0.6-1.7-2.2-2.3-10-2.7-19.9-2.7v-11.6h146.7l-5.5 43.6h-10.5q0-10.5-1.7-20.4 0-1.7-1.1-2.8c-1.6-1.1-54.6-2.7-63.4-2.7q-2.2 19.8-1.6 40.2v29.2h19.3q9.9 0 19.3-1.1 1.6-1.1 2.2-3.3 1.1-3.3 1.1-7.2h11.6l-0.6 12.7v24.8h-11.6q-0.5-3.8-1.6-7.1 0-2.2-1.7-3.3-7.7-1.1-15.4-1.1c-8.8 0-16 0.5-22.1 0.5v77.2c7.7 0.6 67.8-1.7 70-2.8q1.2-1.1 1.7-2.7 3.9-12.7 5.5-25.9zm-1274.2 48.5h-63.5v-11.6q6.7 0 12.7-1.1 2.2-0.5 3.9-2.2 1.6-1.6 2.7-4.4 1.7-2.2 9.4-21 3.9-8.8 13.8-34.1l35.3-90.5 11.6-31.4h19.3l61.2 145.6 8.2 19.3 5.6 13.2q1.1 1.7 2.2 3.3 1.6 1.1 2.7 1.7 3.9 1.1 8.3 1.1l6.1 0.5v11.6h-85.5v-11.6q9.4 0.6 18.2-1.6c1.6-1.1 2.7-2.2 2.2-3.9q-0.6-6.1-2.8-11.6l-11.5-30.9h-70.1l-6 17.1q-4.4 11.6-6.7 23.7c-0.5 2.3 0.6 3.9 2.3 5q9.3 2.8 19.3 2.2zm-3.9-75.5h56.8l-29.2-72.2zm492.4 58.4c0-2.2 0.5-9.4 0.5-24.3v-106.9q0.6-14.9-1.7-29.2c0-1.2-1.1-2.3-1.6-2.8-7.2-2.2-13.8-3.3-21-2.8v-13.2h87.2v12.7q-10 0-19.3 2.7-1.7 0.6-2.2 2.8-1.1 8.3-1.1 17.1v142.8c0 0 67.2-3.3 68.3-3.3q1.7-2.2 2.2-5.5 2.8-10.5 5-24.3h11.6l-5.5 51.3c-2.8 0.5-137.3 0-137.3 0v-7.2q5.5-2.7 9.9-5.5 2.2-1.1 3.8-2.8 0.6-0.5 0.6-1.6zm550.8-33.6h11.1l-5 50.7h-136.2v-7.2q5-2.2 9.9-5.5 2.2-0.5 3.9-2.8 0-0.5 0-1.1 1.1-12.6 1.1-25.3v-106.4q0-14.9-2.2-30.4-0.6-1.6-2.2-2.2-9.9-3.3-21-2.2v-13.2h86.1v12.7q-9.4 0-18.8 2.7-1.1 0.6-2.2 2.8-1.1 8.3-1.1 17.1v142.2c12.7 1.1 67.3-3.3 68.4-3.3q1.1-2.2 2.2-4.9c1.6-7.2 3.3-15.5 6-23.7zm-198.5-132.9q-4.9 0-9.9 1.6c-7.2 2.8-20.4 29.3-31.4 47.5-12.7 19.8-21 33-23.7 39.1q-2.2 5-3.3 10.5-0.6 4.9-0.6 10.5v22.6q0 13.2 1.1 25.9 0 5.5 1.7 9.9 1.6 2.2 4.4 2.8 8.8 1.1 18.2 1.1v12.1h-89.3v-12.1q8.8 0 18.2-1.1 2.2-0.6 3.3-2.3 2.2-4.4 1.6-8.8c1.1-10.4 1.1-19.3 1.1-27v-25.9q-1.6-7.2-5.5-13.2l-54-87.7c-2.2-3.9-6.1-6.1-10.5-6.1h-9.4v-12.1h52.4l54.6 91.5 48-91.5h33zm-449.3 170.9q4.4 1.7 8.8 1.1v12.2h-52.4q-1.1-4.5-3.3-8.3l-29.2-49.6c-6.7-10.5-16.6-25.4-21.5-33.1-2.2-2.2-5-3.9-8.3-3.9h-10.5v34.8c1.1 19.8 1.1 30.3 1.1 33q0 5 1.1 10 1.1 1.6 2.2 2.2 1.7 1.1 3.9 1.6 7.7 0.6 16 0.6v12.7h-87.1v-12.7q9.3 0 18.7-1.1 1.1-0.6 2.2-1.7 1.1-1.6 1.1-3.8 1.1-8.3 1.7-16.6l0.5-41.3v-81.6q0.6-10.5-1.6-21-0.6-1.6-1.7-2.2-9.9-2.7-20.4-2.7v-11.6h100.9q16.6-0.6 32.5 3.3c7.8 2.2 13.8 6.6 18.2 12.7 5.6 7.1 7.8 16 7.8 24.2 0 11.6-3.9 22.1-11.1 30.9-8.2 10.5-19.3 18.2-31.4 22.1q3.3 6.6 7.7 13.2c2.8 4.4 5 6.6 5 7.7l1.6 2.8 21 32.5q8.8 13.2 9.4 14.3c7.1 9.4 11 14.9 12.6 16.6q1.7 1.6 4.5 3.3zm-80-96c6.1-2.7 11-7.7 14.3-13.7 3.9-7.2 5.6-14.9 5.6-23.2 0-7.7-2.2-14.9-6.1-21.5-3.9-5.5-8.8-9.4-14.9-12.1q-10.5-2.2-20.9-1.7-6.1 0-12.7 1.1c0 3.3-0.6 10.5-0.6 22.6-1.1 25.9-1.1 43-1.1 52.4h20.4q8.3 0 16-2.8zm-609.8 54.1c-6.6-14.4-10-30.3-10-46.3-1.1-26 10-51.3 29.3-69 23.7-19.3 53.5-28.6 83.8-27q16 0 32.5 2.8c9.4 1.6 34.7 9.9 34.7 9.9l-6 45.2h-10.5q-0.5-14.3-1.6-23.7c-5.6-6.1-12.7-10.5-20.4-13.8-9.4-3.3-19.3-4.9-29.3-4.4-19.3-1.1-37.5 6.6-51.3 19.9-13.2 15.4-19.8 35.8-18.1 56.2-0.6 12.7 1.6 25.4 6.6 37.5 3.3 9.9 9.3 18.7 17.1 26.5 6 6.6 13.7 11.5 21.5 15.4 11.5 4.4 23.7 6.6 35.8 6.6q13.2 0 26.5-3.3 14.3-3.9 27-10.5v11.1c-9.9 8.2-21.5 13.7-34.2 17.6q-16.5 3.9-34.2 3.3c-17.1 0-34.7-2.7-50.7-9.4-11-4.4-21-10.4-29.8-18.7-7.7-7.7-14.3-16.6-18.7-25.9z"/>
		</g>
	</g>
</svg>