<svg version="1.2" baseProfile="tiny-ps" xmlns="http://www.w3.org/2000/svg" viewBox="0 0 1558 452" width="1558" height="452">
	<title>genmab2-svg</title>
	<style>
		tspan { white-space:pre }
		.shp0 { fill: #ffffff } 
	</style>
	<g id="Layer">
		<path id="Layer" fill-rule="evenodd" class="shp0" d="M541.98 220.07L528.63 238.49C508.4 224.78 493.97 219.41 474.89 219.41C446.02 219.41 423.32 232.75 413.23 261.2C411.53 266.24 410.05 271.35 408.79 276.52C407.52 281.69 406.48 286.91 405.66 292.16C404.84 297.42 404.25 302.71 403.88 308.01C403.51 313.32 403.37 318.64 403.45 323.96C403.45 356.45 409.49 382.79 420.78 399.04C432.07 415.28 457.01 425.37 480.62 425.37C484.04 425.49 487.47 425.37 490.87 425.02C494.27 424.66 497.65 424.06 500.97 423.24C504.29 422.41 507.55 421.35 510.72 420.07C513.89 418.79 516.97 417.29 519.94 415.59L519.94 340.21L470.18 340.21L464.44 315.68L547.72 315.68L547.72 431.11C542.49 434.21 537.05 436.96 531.45 439.33C525.85 441.69 520.09 443.68 514.22 445.26C508.35 446.85 502.37 448.03 496.34 448.81C490.31 449.58 484.23 449.94 478.15 449.89C471.09 450.13 464.03 449.62 457.08 448.38C450.13 447.14 443.33 445.17 436.79 442.5C430.25 439.83 424.01 436.48 418.18 432.51C412.34 428.53 406.94 423.95 402.06 418.85C381.11 396.14 371.38 365.45 371.38 322.87C371.38 275.64 383.46 241.75 409.61 219.04C413.99 215.13 418.72 211.64 423.76 208.63C428.8 205.62 434.11 203.09 439.63 201.08C445.14 199.07 450.83 197.6 456.63 196.67C462.43 195.74 468.3 195.36 474.16 195.55C480.31 195.43 486.46 195.88 492.53 196.88C498.59 197.89 504.56 199.44 510.34 201.54C516.12 203.63 521.7 206.24 527.01 209.35C532.32 212.46 537.33 216.05 541.98 220.07ZM712.15 408.76L722.96 426.88C718.84 430.51 714.39 433.76 709.68 436.58C704.96 439.4 700 441.78 694.85 443.69C689.7 445.61 684.38 447.04 678.97 447.98C673.55 448.92 668.07 449.36 662.57 449.29C612.81 449.29 582.86 413.05 582.86 353.68C582.86 323.48 588.9 303.54 604.48 285.85C607.69 281.84 611.34 278.22 615.37 275.05C619.4 271.87 623.78 269.17 628.43 266.99C633.07 264.81 637.94 263.16 642.96 262.09C647.97 261.01 653.1 260.51 658.22 260.6C662.74 260.46 667.25 260.79 671.7 261.59C676.14 262.39 680.49 263.65 684.67 265.36C688.85 267.07 692.84 269.21 696.58 271.75C700.31 274.29 703.77 277.21 706.9 280.47C722.42 296.3 726.76 313.27 727.49 356.21L727.49 360.2L615.11 360.2L615.11 364.49C615.11 381.46 617.28 394.69 623.44 403.81C625.9 407.39 628.8 410.65 632.08 413.49C635.37 416.33 639 418.75 642.9 420.66C646.8 422.58 650.93 423.99 655.18 424.86C659.44 425.72 663.79 426.04 668.13 425.79C672.16 425.89 676.2 425.6 680.17 424.91C684.15 424.22 688.05 423.15 691.81 421.7C695.58 420.25 699.2 418.44 702.61 416.29C706.03 414.14 709.22 411.66 712.15 408.88L712.15 408.76ZM615.11 338.76L697.36 338.76C696.99 319.31 694.46 307.41 689.08 298.71C687.24 296.17 685.1 293.86 682.69 291.84C680.29 289.82 677.65 288.1 674.82 286.72C672 285.35 669.02 284.33 665.95 283.68C662.87 283.03 659.73 282.77 656.59 282.89C630.99 282.89 616.56 301.61 615.11 338.76ZM763.72 268.81L791.08 261.2C792.18 263.37 793.14 265.61 793.98 267.89C794.81 270.18 795.5 272.51 796.05 274.88C796.59 277.25 797 279.65 797.26 282.07C797.52 284.49 797.63 286.92 797.6 289.35C816.38 270.63 835.1 261.57 854.24 261.57C858.76 261.44 863.27 261.95 867.64 263.1C872.01 264.24 876.19 266 880.06 268.32C883.94 270.64 887.46 273.5 890.53 276.81C893.6 280.13 896.19 283.86 898.21 287.9C898.92 289.54 899.56 291.22 900.1 292.93C900.65 294.63 901.11 296.37 901.47 298.12C901.84 299.88 902.11 301.65 902.29 303.43C902.47 305.22 902.56 307.01 902.55 308.8L902.55 445.18L874.05 445.18L874.05 323.54C874.05 304.45 872.96 299.38 867.59 293.64C866.29 292.35 864.86 291.21 863.33 290.21C861.79 289.22 860.16 288.39 858.46 287.74C856.75 287.09 854.98 286.61 853.18 286.33C851.37 286.04 849.55 285.94 847.72 286.03C833.29 286.03 810.95 297.56 797.96 311.27L797.96 445.12L770.55 445.12L770.55 311.46C770.55 286.57 769.82 282.65 763.72 269.18L763.72 268.81ZM950.8 267.73L978.22 261.2C979.19 263.17 980.05 265.18 980.82 267.23C981.58 269.28 982.23 271.37 982.78 273.49C983.33 275.61 983.77 277.76 984.09 279.92C984.42 282.08 984.64 284.26 984.74 286.45L984.74 287.9C986.32 286.17 987.96 284.5 989.68 282.91C991.39 281.32 993.17 279.79 995.01 278.35C996.85 276.9 998.75 275.53 1000.71 274.24C1002.66 272.95 1004.67 271.75 1006.72 270.63C1008.94 269.12 1011.26 267.77 1013.67 266.6C1016.08 265.42 1018.57 264.41 1021.12 263.59C1023.67 262.76 1026.28 262.11 1028.92 261.66C1031.56 261.2 1034.24 260.92 1036.92 260.84C1040.37 260.88 1043.82 261.32 1047.18 262.14C1050.54 262.96 1053.79 264.17 1056.87 265.74C1059.96 267.3 1062.85 269.22 1065.5 271.44C1068.15 273.67 1070.53 276.19 1072.6 278.96C1073.28 279.87 1073.91 280.81 1074.51 281.77C1075.1 282.73 1075.65 283.72 1076.16 284.73C1076.66 285.75 1077.12 286.78 1077.54 287.83C1077.95 288.89 1078.32 289.96 1078.64 291.04C1095.97 272.62 1117.96 260.84 1136.37 260.84C1163.07 260.84 1181.42 281.07 1181.42 309.52L1181.42 445.18L1152.8 445.18L1152.8 312.3C1152.8 295.03 1144.83 285.97 1129.67 285.97C1127.3 286.07 1124.93 286.36 1122.61 286.83C1120.28 287.3 1117.99 287.95 1115.76 288.78C1113.54 289.61 1111.38 290.61 1109.31 291.78C1107.24 292.95 1105.26 294.28 1103.4 295.75C1101.81 296.91 1100.24 298.1 1098.69 299.31C1097.14 300.51 1095.61 301.75 1094.1 303.01C1092.59 304.27 1091.1 305.55 1089.63 306.86C1088.16 308.17 1086.71 309.5 1085.29 310.85L1082.02 313.75L1082.02 445.06L1053.52 445.06L1053.52 317.5C1053.52 301.97 1053.16 299.38 1048.51 294.42C1047.36 293.15 1046.07 292.02 1044.67 291.04C1043.26 290.07 1041.74 289.26 1040.15 288.64C1038.56 288.01 1036.9 287.57 1035.21 287.32C1033.51 287.08 1031.8 287.03 1030.09 287.18C1016.38 287.18 1003.04 294.06 984.32 310.97L984.32 445.18L957.26 445.18L957.26 311.46C957.26 286.57 956.54 282.65 950.74 267.85L950.8 267.73ZM1226.29 284.82C1231.79 281 1237.57 277.6 1243.57 274.64C1249.58 271.67 1255.79 269.16 1262.17 267.12C1268.55 265.07 1275.07 263.5 1281.67 262.42C1288.28 261.34 1294.96 260.75 1301.65 260.66C1326.53 260.66 1343.93 270.44 1351.41 288.81C1354.67 296.78 1355.4 302.88 1355.4 319.49L1355.4 328.49L1353.95 387.68C1353.87 388.37 1353.81 389.05 1353.75 389.74C1353.7 390.43 1353.66 391.12 1353.63 391.81C1353.6 392.5 1353.58 393.19 1353.57 393.88C1353.57 394.57 1353.57 395.27 1353.59 395.96C1353.59 417.94 1356.85 426.16 1368.38 431.65L1353.95 451.89C1350.97 450.92 1348.12 449.58 1345.47 447.9C1342.83 446.21 1340.41 444.2 1338.27 441.9C1336.13 439.61 1334.3 437.05 1332.81 434.29C1331.32 431.53 1330.18 428.6 1329.43 425.55C1312.16 442.83 1298.09 449.71 1277.5 449.71C1254.79 449.71 1243.62 443.67 1234.26 435.28C1231.94 432.82 1229.86 430.15 1228.05 427.3C1226.23 424.45 1224.7 421.43 1223.47 418.29C1222.23 415.14 1221.3 411.89 1220.69 408.57C1220.08 405.24 1219.79 401.87 1219.83 398.49C1219.83 357.72 1254.79 333.92 1315 333.92C1319.35 333.92 1321.52 333.92 1327.62 334.29L1327.62 321.66C1327.62 305.78 1326.9 299.26 1321.58 293.52C1320.08 291.84 1318.4 290.34 1316.55 289.05C1314.71 287.75 1312.73 286.68 1310.64 285.84C1308.55 285 1306.38 284.4 1304.15 284.05C1301.93 283.71 1299.67 283.62 1297.43 283.79C1294.44 283.83 1291.46 284.03 1288.5 284.38C1285.53 284.73 1282.59 285.24 1279.68 285.91C1276.76 286.57 1273.89 287.39 1271.07 288.36C1268.24 289.33 1265.47 290.44 1262.77 291.71C1260.71 292.5 1258.7 293.39 1256.73 294.37C1254.76 295.35 1252.83 296.42 1250.95 297.56C1249.08 298.71 1247.25 299.94 1245.48 301.25C1243.72 302.57 1242.01 303.95 1240.36 305.42L1226.29 284.82ZM1326.9 353.74C1320.86 353.37 1317.9 353.01 1312.83 353.01C1285.41 353.01 1270.56 358.08 1261.26 367.45C1259.51 369.36 1257.96 371.44 1256.63 373.67C1255.3 375.89 1254.19 378.24 1253.33 380.68C1252.47 383.12 1251.85 385.65 1251.49 388.21C1251.12 390.77 1251.02 393.37 1251.17 395.96C1251.17 417.22 1261.62 428.75 1282.21 428.75C1286.77 428.67 1291.29 427.96 1295.65 426.63C1300.01 425.3 1304.17 423.38 1308 420.91C1311.83 418.44 1315.31 415.45 1318.32 412.03C1321.33 408.61 1323.85 404.78 1325.81 400.67L1326.9 353.74ZM1432.88 180.93C1433.76 184.59 1434.52 188.27 1435.16 191.98C1435.8 195.69 1436.31 199.41 1436.71 203.15C1437.1 206.9 1437.37 210.65 1437.52 214.41C1437.66 218.17 1437.69 221.93 1437.59 225.69L1437.59 265.73C1437.59 274.73 1437.22 283.43 1436.86 285.54C1454.5 268.27 1469.29 261.38 1488.43 261.38C1531.31 261.38 1558 296.42 1558 352.65C1558 410.39 1529.56 449.29 1486.62 449.29C1481.91 449.18 1477.22 448.57 1472.64 447.46C1468.05 446.36 1463.6 444.77 1459.35 442.73C1455.11 440.68 1451.09 438.19 1447.37 435.29C1443.65 432.39 1440.25 429.11 1437.22 425.49C1437.14 427.18 1436.97 428.86 1436.71 430.52C1436.46 432.19 1436.11 433.84 1435.69 435.48C1435.26 437.11 1434.75 438.72 1434.16 440.3C1433.57 441.88 1432.9 443.43 1432.15 444.94L1404.01 444.94C1408 436.3 1409.45 424.4 1409.45 400.24L1409.45 229.86C1409.64 226.23 1409.64 222.6 1409.43 218.97C1409.22 215.35 1408.81 211.74 1408.2 208.16C1407.59 204.58 1406.79 201.04 1405.78 197.55C1404.78 194.06 1403.58 190.63 1402.2 187.27L1432.88 180.93ZM1437.22 402.96C1439.91 406.25 1442.95 409.24 1446.28 411.87C1449.6 414.51 1453.21 416.78 1457.02 418.64C1460.83 420.51 1464.84 421.96 1468.96 422.97C1473.08 423.98 1477.31 424.54 1481.55 424.65C1484.67 424.62 1487.77 424.24 1490.81 423.53C1493.85 422.81 1496.79 421.76 1499.59 420.39C1502.4 419.02 1505.04 417.34 1507.47 415.38C1509.9 413.43 1512.1 411.21 1514.04 408.76C1520.5 399.04 1526.66 381.34 1526.66 351.02C1526.66 327.22 1523.76 313.15 1516.15 302.7C1514.14 300.17 1511.85 297.89 1509.31 295.9C1506.77 293.91 1504 292.23 1501.07 290.89C1498.14 289.54 1495.05 288.55 1491.89 287.92C1488.72 287.3 1485.5 287.05 1482.27 287.18C1479.36 287.18 1476.45 287.43 1473.58 287.91C1470.71 288.39 1467.88 289.11 1465.13 290.06C1462.38 291.01 1459.71 292.18 1457.14 293.57C1454.58 294.96 1452.14 296.56 1449.85 298.35C1448.57 299.09 1447.35 299.9 1446.17 300.78C1445 301.66 1443.87 302.62 1442.81 303.63C1441.75 304.65 1440.75 305.73 1439.82 306.86C1438.88 308 1438.02 309.19 1437.22 310.43L1437.22 402.96Z" />
		<path id="Layer" class="shp0" d="M90.58 62.97C99.64 43.88 87.5 18.88 63.41 7.1C39.31 -4.68 12.38 1.06 3.32 20.33C-5.74 39.6 6.4 64.42 30.5 76.2C54.59 87.98 81.52 82.24 90.58 62.97Z" />
		<path id="Layer" class="shp0" d="M230.92 343.53C251.82 343.53 268.79 321.54 268.79 294.42C268.79 267.3 251.82 245.32 230.92 245.32C210.03 245.32 193.06 267.3 193.06 294.42C193.06 321.54 210.03 343.53 230.92 343.53ZM230.92 224.78C251.82 224.78 268.79 202.8 268.79 175.68C268.79 148.56 251.82 126.57 230.92 126.57C210.03 126.57 193.24 148.38 193.24 175.68C193.24 202.98 210.21 224.78 231.1 224.78M195.78 114.67C204.9 95.59 192.7 70.52 168.6 58.74C144.51 46.96 117.57 52.7 108.52 71.97C99.46 91.24 111.6 116.06 135.69 127.84C159.79 139.62 186.72 133.88 195.78 114.67ZM266.01 114.61C256.95 95.53 269.15 70.52 293.24 58.68C317.34 46.84 344.21 52.64 353.33 71.91C362.45 91.18 350.19 116.06 326.09 127.84C302 139.62 275.13 133.88 266.01 114.61ZM371.56 62.91C362.45 43.82 374.64 18.82 398.74 7.04C422.83 -4.74 449.71 1 459.13 20.27C468.55 39.54 456.05 64.36 431.95 76.14C407.86 87.92 380.92 82.18 371.56 62.91Z" />
	</g>
</svg>