<svg version="1.2" xmlns="http://www.w3.org/2000/svg" viewBox="0 0 1582 355" width="1582" height="355">
	<title>klarrr-svg</title>
	<style>
		.s0 { fill: #ffffff } 
	</style>
	<path id="Layer" fill-rule="evenodd" class="s0" d="m200.4 0.8h77.9c0 75.1-29.3 144.9-81.4 196.9l109.9 149.9h-98.2l-119.4-163 30.8-23.1c51.2-38.3 80.4-96.8 80.4-160.7zm1188.2 122.3v-15.4h71.7v239.9h-71.7v-15.4c-20.3 13.8-44.7 22-71.1 22-69.8 0-126.4-56.7-126.4-126.6 0-69.8 56.6-126.5 126.4-126.5 26.4 0 50.8 8.2 71.1 22zm-0.3 104.6c0-34.1-29-61.7-64.9-61.7-36 0-65 27.6-65 61.7 0 34.1 29 61.6 65 61.6 35.9 0 64.9-27.5 64.9-61.6zm-1388.3-226.9h79.7v346.8h-79.7zm330 0h75.1v346.7h-75.1zm835.8 194.2v152.5h-71.7v-126.5c0-35-18.1-53.8-49.6-53.8-29.4 0-53.9 17.8-53.9 54.3v126h-72.2v-239.8h71.4v27c18.1-24.5 45.2-33.5 73.8-33.5 57.8 0 102.2 38 102.2 93.8zm-533.9-71.9v-15.4h71.8v239.8h-71.8v-15.3c-20.2 13.8-44.7 21.9-71 21.9-69.9 0-126.5-56.6-126.5-126.5 0-69.8 56.6-126.5 126.5-126.5 26.3 0 50.8 8.2 71 22zm-0.2 104.5c0-34.1-29.1-61.7-65-61.7-35.9 0-65 27.6-65 61.7 0 34.1 29.1 61.7 65 61.7 35.9 0 65-27.6 65-61.7zm253.2-119.9v69.8h-0.9c-28.3 0-69.2 20.3-69.2 58v112h-73.6v-239.8h73.4v31.3c14.4-18.7 41.2-31.3 70.3-31.3zm651.6 244.8c-24.9 0-45.1-20.1-45.1-45 0-24.9 20.2-45.1 45.1-45.1 24.9 0 45 20.2 45 45.1 0 24.9-20.1 45-45 45z"/>
</svg>