<svg version="1.2" baseProfile="tiny-ps" xmlns="http://www.w3.org/2000/svg" viewBox="0 0 1509 430" width="1509" height="430">
	<title>Shopify_logo_2018-svg</title>
	<style>
		tspan { white-space:pre }
		.shp0 { fill: #95bf47 } 
		.shp1 { fill: #5e8e3e } 
		.shp2 { fill: #ffffff } 
	</style>
	<path id="Layer" fill-rule="evenodd" class="shp0" d="M373.11 394.89L260.29 422.95L0 377.92C0 377.92 31.06 137.65 32.21 129.19C33.76 117.99 34.13 117.63 46 113.9C46.37 113.78 62.81 108.69 86.33 101.4C88.84 83.41 97.7 60.18 109.33 41.69C125.87 15.4 146.27 0.61 166.75 0.02C177.36 -0.3 186.22 3.3 193.13 10.7C193.62 11.24 194.09 11.79 194.56 12.35C195.66 12.26 196.75 12.15 197.86 12.15C197.88 12.15 197.89 12.15 197.91 12.15C213.77 12.18 226.9 21.22 235.86 38.33C238.64 43.63 240.59 48.92 241.91 53.21C249.83 50.76 254.53 49.3 254.56 49.29C256.45 48.73 261.3 47.98 263.79 50.46C266.27 52.95 291.45 77.41 291.45 77.41C291.45 77.41 321.55 77.86 323.08 77.99C324.63 78.12 326.49 79.31 326.79 81.44C327.08 83.58 373.11 394.89 373.11 394.89ZM202.47 26.22C207.3 38.69 208.53 53.13 208.68 63.5C216.07 61.21 222.89 59.1 228.88 57.25C225.65 46.76 218.01 29.17 202.47 26.22ZM188.31 27.83C182.28 30.32 177.19 34.67 173.55 38.58C163.77 49.08 155.8 65.1 151.61 81.18C166.54 76.56 181.42 71.95 195.06 67.72C195.2 56.4 193.97 39.66 188.31 27.83ZM100.92 96.87C112.09 93.42 124.22 89.66 136.61 85.82C140.59 64.91 150.56 43.24 163.57 29.27C168.59 23.89 173.94 19.76 179.48 16.88C176.01 14.6 171.97 13.55 167.16 13.65C135.55 14.57 107.97 63.96 100.92 96.87Z" />
	<path id="Layer" class="shp1" d="M323.09 78C321.56 77.88 291.46 77.42 291.46 77.42C291.46 77.42 266.29 52.96 263.8 50.48C262.87 49.55 261.62 49.07 260.3 48.87L260.32 422.94L373.12 394.9C373.12 394.9 327.09 83.59 326.8 81.45C326.51 79.32 324.63 78.13 323.09 78Z" />
	<path id="Layer" class="shp2" d="M197.77 136.03L184.67 185.07C184.67 185.07 170.06 178.41 152.73 179.5C127.32 181.11 127.05 197.14 127.31 201.17C128.7 223.1 186.37 227.88 189.61 279.26C192.15 319.67 168.18 347.31 133.64 349.5C92.17 352.11 69.35 327.65 69.35 327.65L78.13 290.26C78.13 290.26 101.11 307.61 119.5 306.44C131.51 305.68 135.81 295.91 135.37 288.99C133.57 260.39 86.6 262.08 83.63 215.07C81.13 175.51 107.1 135.43 164.4 131.82C186.48 130.4 197.77 136.03 197.77 136.03Z" />
	<path id="Layer" fill-rule="evenodd" class="shp2" d="M558.37 287.63C558.37 328.41 525.39 351.02 479.44 351.02C447.83 351.02 429.04 338.42 429.04 338.42L441.64 302.08C441.64 302.08 461.97 313.21 483.51 313.21C497.96 313.21 505.74 305.42 505.74 295.79C505.74 286.52 500.18 280.21 484.61 271.32C465.34 260.21 450.89 244.63 450.89 224.24C450.89 188.28 481.83 162.7 526.49 162.7C558.57 162.7 569.47 171.23 569.47 171.23L557.62 207.57C557.62 207.57 542.59 200.53 525.75 200.53C511.29 200.53 502.03 207.19 502.03 217.58C502.03 225.73 508.7 231.67 521.67 238.71C541.69 250.2 558.36 265.77 558.37 287.63ZM746.63 208.68C746.63 217.59 745.15 230.92 742.92 242.05L722.92 347.71L671.77 347.71L691.04 245.39C692.51 238.35 693.26 229.82 693.26 222.78C693.26 211.65 688.8 203.87 677.32 203.87C661.01 203.87 643.59 224.62 636.93 258.36L619.88 347.69L568.74 347.69L618.39 86.34L669.54 86.34L649.9 189.03L650.64 189.4C664.35 173.09 682.14 162.34 704.74 162.34C731.42 162.34 746.61 179.76 746.63 208.68ZM931.53 233.88C931.53 297.28 890.77 351.39 830.37 351.39C784.41 351.39 759.96 319.52 759.96 279.85C759.96 217.95 800.71 162.34 862.23 162.34C910.04 162.34 931.53 197.19 931.53 233.88ZM879.27 232.42C879.27 217.21 873.35 201.64 855.19 201.64C827.4 201.64 812.2 249.46 812.2 278.75C812.2 297.29 819.62 312.11 837.03 312.11C864.09 312.11 879.27 263.92 879.27 232.42ZM1114.97 227.57C1114.97 289.86 1075.69 351.39 1015.66 351.39C996.14 351.39 985.64 344.73 985.64 344.73L984.52 344.73L970.45 420.35L919.31 420.35L954.89 233.15C958.95 212.01 963.04 183.85 965.26 165.31L1010.47 165.31L1007.5 192.74L1008.24 192.74C1008.24 192.74 1027.83 162.34 1062.35 162.34C1099.77 162.34 1114.97 193.11 1114.97 227.57ZM1061.6 232.78C1061.6 219.05 1056.79 204.6 1041.22 204.6C1023.43 204.6 1006.76 225.73 1000.82 257.61L992.3 305.43C992.3 305.43 1000.15 312.85 1013.43 312.85C1041.96 312.85 1061.6 265.77 1061.6 232.78ZM1213.54 114.52C1213.17 133.42 1199.46 144.17 1183.53 144.17L1182.79 144.17C1168.33 144.17 1158.7 133.79 1158.7 118.59C1158.7 101.91 1171.67 88.94 1187.97 88.94C1203.54 88.94 1213.54 99.69 1213.54 114.52ZM1150.91 166.42L1202.43 166.42L1167.59 347.69L1116.46 347.69L1150.91 166.42ZM1325.46 204.61L1290.26 204.61L1263.21 347.71L1212.06 347.71L1239.11 204.61L1215.39 204.61L1222.8 166.05L1246.53 166.05L1248 157.52C1252.07 136.01 1260.23 114.52 1277.65 99.69C1291.36 87.83 1309.51 82.64 1327.67 82.64C1346.57 82.64 1355.47 87.09 1355.47 87.09L1345.46 127.12C1345.46 127.12 1338.26 124.53 1329.16 124.53C1312.12 124.53 1301.74 140.1 1298.77 157.52L1296.92 166.05L1332.5 166.05L1325.46 204.61ZM1455.53 166.41L1508.88 166.41L1446.25 300.62C1424.02 346.59 1402.54 380.33 1379.19 402.2C1361.03 419.25 1339.54 427.78 1329.16 430L1315.08 386.62C1323.6 383.66 1334.35 379.21 1343.98 372.17C1355.84 364.01 1365.84 352.88 1371.78 341.4C1373.27 338.8 1373.64 336.57 1372.89 332.87L1342.12 166.43L1395.86 166.43C1395.86 166.43 1407.48 276.82 1408.46 290.98L1409.2 290.98C1423.56 247 1455.53 166.43 1455.53 166.43L1455.53 166.41Z" />
</svg>