<svg version="1.2" xmlns="http://www.w3.org/2000/svg" viewBox="0 0 1572 708" width="1572" height="708">
	<title>logo (17)-svg</title>
	<style>
		.s0 { fill: #ffffff } 
	</style>
	<path id="Layer" fill-rule="evenodd" class="s0" d="m1419.5 283.8c-14.8 7.6-31.3 11.3-47.9 10.7-16.6-0.7-32.8-5.5-47-14.2-14.2-8.6-25.9-20.8-34-35.3-8.2-14.5-12.4-30.8-12.4-47.4v-99.7c0-8.5-1.1-17-3.2-25.3-2.1-8.3-5.2-16.3-9.3-23.8-4.1-7.5-9.2-14.5-15-20.7-5.8-6.3-12.4-11.8-19.6-16.4 14.8-7.6 31.3-11.3 47.9-10.7 16.6 0.6 32.8 5.5 47 14.2 14.2 8.6 25.9 20.8 34 35.3 8.1 14.5 12.4 30.8 12.4 47.4v99.7c0 6.7 0.6 13.4 1.9 20 1.3 6.6 3.3 13 5.8 19.2 2.6 6.2 5.8 12.2 9.5 17.7 3.7 5.6 8 10.8 12.8 15.6q1.9 1.9 4 3.7 2 1.9 4.2 3.6 2.1 1.7 4.3 3.3 2.3 1.6 4.6 3.1zm-177.4-89h-66.6c-29.8 0.1-57.9-13.5-76.3-36.9-18.4-23.4-25.1-53.9-18.1-82.8 7-28.9 26.9-53 53.9-65.4 27.1-12.3 58.3-11.6 84.8 2.1q-2.3 1.4-4.5 3-2.3 1.6-4.4 3.4-2.1 1.7-4.2 3.5-2 1.9-4 3.8c-12.2 12.3-21.2 27.6-26 44.3-4.7 16.7-5.2 34.4-1.2 51.3 3.9 16.9 12.1 32.6 23.7 45.5 11.7 12.9 26.5 22.6 42.9 28.2zm329.8 2.8c0 16.6-4.3 32.9-12.5 47.4-8.1 14.5-19.8 26.6-34 35.3-14.2 8.6-30.4 13.5-47 14.1-16.6 0.6-33.1-3-47.8-10.6q2.3-1.5 4.5-3.1 2.2-1.6 4.4-3.3 2.1-1.7 4.2-3.6 2-1.8 3.9-3.8c12.3-12.3 21.3-27.5 26.1-44.2 4.7-16.7 5.2-34.4 1.3-51.3-3.9-16.9-12.1-32.6-23.7-45.5-11.7-12.9-26.4-22.7-42.9-28.3h66.6c12.8 0 25.4 2.5 37.1 7.4 11.7 4.9 22.4 12 31.4 21 9 9 16.1 19.7 21 31.4 4.8 11.8 7.4 24.3 7.4 37.1zm-960 352.1h11.1v71.2h94.7v-71.2h11.1v155.7h-11.1v-73.2h-94.7v73.4h-11.1zm157.1 107c0.3 5.4 1.6 10.7 3.9 15.6 2.2 5 5.3 9.4 9.2 13.2 3.9 3.8 8.5 6.8 13.5 8.9 5 2.1 10.3 3.3 15.7 3.5 3.5-0.1 7-0.6 10.3-1.4 3.4-0.9 6.7-2.2 9.7-3.8 3.1-1.6 6-3.6 8.6-5.9 2.7-2.2 5-4.8 7-7.6l6.7 6.4c-2.4 3.4-5.2 6.4-8.3 9.2-3.1 2.7-6.5 5-10.2 7-3.7 1.9-7.5 3.4-11.5 4.4-4 1-8.2 1.6-12.3 1.7-27.8 0-52.3-24.5-52.3-55.7 0-31.2 24.5-55.6 51.2-55.6 26.7 0 49 22.2 49 55.6v4.5zm0-10h80.2c-1.1-23.3-17.8-39.9-39-39.9-21.1 0-40.1 18.7-41.2 39.9zm189.3-7.8c0-18.5-12.9-32.3-30-32.3q-4.5 0.2-8.8 1.3-4.4 1.1-8.5 3.1-4 2-7.5 4.9-3.5 2.8-6.3 6.3l-6.7-6.7c0 0 13.8-18.9 37.9-18.9 22.9 0 39.9 18.5 39.9 42.3v66.8h-10v-17.9c-2.1 3.2-4.7 6-7.6 8.5-2.8 2.5-6 4.6-9.4 6.4-3.3 1.7-6.9 3-10.6 3.9-3.7 0.8-7.5 1.3-11.3 1.2-21.2 0-35.7-14.5-35.7-29.9 0-16.7 12.3-29.2 32.3-32.3zm0 10l-40 6.6c-16.6 2.7-24.5 11.2-24.5 22.3 0 10 10 20 25.6 20 5.2 0.1 10.3-0.8 15-2.7 4.8-2 9.1-4.8 12.8-8.4 3.6-3.7 6.5-8 8.4-12.8 1.9-4.7 2.8-9.8 2.7-15zm57.5 56.8h-10v-155.9h10zm48.5-142.4h8.9v35.6h24.5v10h-24.5v70.1c0 12.2 6.6 18.9 16.6 18.9q1.9-0.1 3.8-0.3 1.8-0.2 3.7-0.7 1.8-0.4 3.6-1 1.7-0.6 3.4-1.4v10q-1.7 0.8-3.4 1.4-1.8 0.6-3.6 1-1.9 0.5-3.7 0.7-1.9 0.2-3.8 0.2c-16.6 0-26.6-9.9-26.6-28.9v-70h-21.2v-10h14.5c1.1 0 2.2-0.3 3.3-0.8 1-0.4 1.9-1.1 2.6-1.9 0.8-0.9 1.3-1.9 1.6-2.9 0.4-1.1 0.5-2.2 0.3-3.3v-26.7zm78.5 54.6c1.8-3.3 4-6.3 6.6-8.9 2.6-2.7 5.6-5 8.8-6.8 3.2-1.9 6.7-3.3 10.3-4.2 3.5-0.9 7.2-1.3 11-1.3 24.5 0 43.3 18.9 43.3 45.7v63.4h-10v-63.5c0-21.1-14.5-35.6-33.3-35.6-20 0-36.7 16.7-36.7 39v60h-10v-155.9h10zm-1132.3-317.9c0-42.1 36.3-78.4 93.8-78.4 59.3 0 88 36.3 88 36.3l-34.3 36.4c0 0-19.1-23-49.8-23-22.9 0-36.3 13.3-36.3 28.7 0 49.7 132.1 21.1 132.1 116.7 0 47.9-36.4 84.2-101.5 84.2-67 0-101.5-44-101.5-44l34.5-34.5c3.9 4.5 8.4 8.5 13.2 12.1 4.8 3.5 9.9 6.5 15.4 9 5.4 2.5 11.1 4.3 16.9 5.6 5.8 1.3 11.8 2 17.7 2 28.8 0 44.1-15.3 44.1-34.4-0.1-49.7-132.3-21-132.3-116.7zm275 193.3l-72.7-185.6h53.6l44 124.4 39.8-111.9c0.6-1.8 1.5-3.5 2.7-5 1.1-1.5 2.5-2.9 4.1-4 1.5-1.1 3.3-1.9 5.1-2.5 1.8-0.6 3.7-0.9 5.6-0.9h40.4l-74.6 198.8c-17.2 46-40.2 68.9-72.7 68.9q-4.2 0-8.3-0.3-4.2-0.4-8.3-1.1-4.1-0.7-8.1-1.8-4-1.1-7.9-2.6v-45.9q2.3 1 4.6 1.7 2.4 0.7 4.8 1.2 2.4 0.5 4.9 0.7 2.4 0.3 4.9 0.2c3.4 0.2 6.9-0.2 10.2-1.1 3.3-0.9 6.5-2.4 9.4-4.2 2.9-1.9 5.5-4.2 7.7-6.9 2.2-2.6 3.9-5.6 5.2-8.8zm200.3-162.7c0 0 19.1-26.6 53.6-26.6 42.1 0 72.7 30.6 72.7 82.3v109.1h-33c-2.5 0-4.9-0.5-7.2-1.5-2.2-0.9-4.3-2.3-6-4-1.7-1.7-3.1-3.8-4-6-1-2.3-1.4-4.7-1.4-7.2v-84.8c0-23-15.4-38.3-36.4-38.3-23 0-38.3 15.3-38.3 44v97.6h-51.7v-187.5h51.7zm209.2 88c3.8 19.1 21.1 36.3 49.8 36.3q4.9 0 9.8-0.7 4.9-0.8 9.6-2.3 4.7-1.4 9.2-3.6 4.4-2.2 8.5-5c1.9-1.3 4.1-2.2 6.3-2.7 2.3-0.5 4.6-0.5 6.9-0.1 2.3 0.4 4.5 1.2 6.5 2.4 2 1.2 3.7 2.7 5.1 4.6l14.6 18.8c-5.2 5.2-11 9.9-17.2 14-6.2 4.1-12.8 7.5-19.7 10.3-6.9 2.8-14 4.9-21.3 6.3-7.3 1.3-14.7 2-22.2 1.9-62.9 0-111.1-56.6-97.1-119.5 2.4-10.8 6.7-21.1 12.6-30.5 5.8-9.3 13.3-17.6 22-24.4 8.7-6.8 18.4-12.1 28.9-15.6 10.5-3.5 21.5-5.2 32.5-5 53.3 0.4 93 40.4 93 93.7q0 2.6 0 5.3-0.1 2.6-0.4 5.3-0.2 2.6-0.6 5.2-0.4 2.6-0.9 5.2c0 0-135.9 0-135.9 0.1zm0-36.4h86.2c-0.9-4.9-2.6-9.6-5.1-13.8-2.5-4.3-5.8-8.1-9.6-11.2-3.8-3.2-8.2-5.6-12.9-7.2-4.7-1.6-9.6-2.4-14.6-2.2-22.9 0-38.3 15.3-44 34.4zm263.7 116.8c-53.6 0-99.6-46-99.6-97.6 0-51.7 46-97.6 99.6-97.6 53.6 0 99.5 45.9 99.5 97.6 0 51.6-45.9 97.6-99.5 97.6zm45.9-97.6c0-27.6-20.5-49.8-45.9-49.8-25.4 0-46 22.2-46 49.8 0 27.5 20.6 49.7 46 49.7 25.4 0 45.9-22.2 45.9-49.7zm187.8-38.3c0 0-11.5-15.3-30.7-15.3-15.3 0-23 7.6-23 15.3 0 26.6 86.2 13.3 86.2 76.5 0 32.6-26.7 59.4-74.7 59.4-53.6 0-76.6-34.5-76.6-34.5l28.7-28.7c0 0 15.4 21 40.2 21 17.2 0 24.9-7.6 24.9-17.2 0-28.7-86.2-14.5-86.2-76.5 0-28.7 30.7-59.3 72.8-59.3 44 0 65.1 28.7 65.1 28.7zm71.8 92c6.1 0.1 11.5 4 13.7 9.7 2.3 5.7 0.9 12.1-3.5 16.4-4.4 4.3-10.9 5.5-16.6 3.1-5.6-2.4-9.3-7.9-9.2-14-0.1-2.1 0.3-4.1 1.1-6 0.8-1.8 2-3.5 3.4-5 1.5-1.4 3.2-2.5 5.1-3.2 1.9-0.7 3.9-1.1 6-1zm0 27.2c4.8 0.2 9.4-2.6 11.4-7.1 2-4.4 1.1-9.6-2.3-13.1-3.4-3.6-8.5-4.7-13.1-2.9-4.5 1.8-7.5 6.2-7.5 11.1 0 1.5 0.2 3.1 0.8 4.5 0.5 1.4 1.3 2.8 2.4 3.9 1.1 1.1 2.4 2 3.8 2.6 1.4 0.6 2.9 0.9 4.5 1zm-6.1-20.6h6.4c4.3 0 6.7 1.3 6.7 5.1q0.1 0.9-0.3 1.7-0.3 0.9-0.9 1.6-0.6 0.6-1.5 0.9-0.9 0.4-1.8 0.3l4.6 7.5h-3.6l-4.1-7.3h-2.2v7.3h-3.3zm3.3 7.1h3c1.9 0 3.4-0.3 3.4-2.4 0-2-2-2.1-3.5-2.1h-2.9c0 0 0 4.5 0 4.5z"/>
</svg>